<?xml version="1.0" encoding="UTF-8"?>
<svg id="Laag_5" data-name="Laag 5" xmlns="http://www.w3.org/2000/svg" viewBox="0 0 500 500">
  <path d="m272.36,283.51c2.42.36,4.89.58,7.41.67,10.54.38,21.5-1.95,32.87-6.99,7.61-3.37,14.62-7.51,21.01-12.4,6.39-4.89,11.42-10.01,15.09-15.36l9.7,21.88c-4.62,4.69-10.02,9.22-16.21,13.58-6.19,4.36-12.4,7.92-18.64,10.69-25.32,11.22-48.11,14.58-68.38,10.07-20.27-4.5-38.14-17.3-53.63-38.38l-20.92,9.27-3.09-17.01,14.31-6.34c-1.13-2.05-2.38-4.63-3.76-7.75-.76-1.72-2.25-5.33-4.46-10.82l-18.03,7.99-3.09-17.01,16.1-7.13c-3.07-15.11-2.64-29.67,1.31-43.67,3.94-14,11.16-26.69,21.66-38.06,10.49-11.36,23.86-20.65,40.09-27.84,16.79-7.44,32.56-10.6,47.32-9.49l4.23,22.54c-14.59-1.97-29.13.26-43.63,6.68-10.92,4.84-20.11,11.26-27.59,19.28-7.48,8.02-12.65,17.08-15.53,27.18-2.88,10.1-3.17,20.58-.89,31.43l94.67-41.95,3.09,17.01-93.15,41.28c1.78,5,2.94,8.11,3.48,9.34,2.07,4.67,3.65,7.75,4.74,9.22l89.3-39.57,3.1,17.01-82.84,36.7c6.58,8.66,14.22,15.49,22.92,20.51,6.62,3.82,13.77,6.29,21.45,7.43" fill="#bacdeb"/>
  <g>
    <g>
      <polyline points="86.22 115.63 135.1 116.13 189.96 344.5 385 344.5" fill="none" stroke="#688fca" stroke-linecap="round" stroke-linejoin="round" stroke-width="12"/>
      <polyline points="144.15 153.8 424.26 153.8 386.74 303.84 180.8 306.37" fill="none" stroke="#688fca" stroke-linecap="round" stroke-linejoin="round" stroke-width="12"/>
    </g>
    <line x1="237.82" y1="155.84" x2="237.82" y2="306.66" fill="none" stroke="#688fca" stroke-linecap="round" stroke-linejoin="round" stroke-width="6"/>
    <line x1="323.73" y1="155.84" x2="323.73" y2="306.66" fill="none" stroke="#688fca" stroke-linecap="round" stroke-linejoin="round" stroke-width="6"/>
    <line x1="166.34" y1="253.1" x2="401.58" y2="253.1" fill="none" stroke="#688fca" stroke-linecap="round" stroke-linejoin="round" stroke-width="6"/>
    <line x1="162.55" y1="204.03" x2="406.91" y2="204.03" fill="none" stroke="#688fca" stroke-linecap="round" stroke-linejoin="round" stroke-width="6"/>
    <circle cx="237.12" cy="368.28" r="15.74" fill="#688fca" stroke="#688fca" stroke-miterlimit="10" stroke-width="6"/>
    <circle cx="339.53" cy="368.32" r="15.74" fill="#688fca" stroke="#688fca" stroke-miterlimit="10" stroke-width="6"/>
  </g>
</svg>